<svg id="Layer_13" data-name="Layer 13" xmlns="http://www.w3.org/2000/svg" viewBox="0 0 1100.33 672.65"><defs><style>.cls-1,.cls-2,.cls-3,.cls-4{fill:none;stroke:#fff;stroke-linejoin:round;}.cls-1,.cls-2{stroke-width:40px;}.cls-2,.cls-3{stroke-linecap:square;}.cls-3,.cls-4{stroke-width:28px;}.cls-5{fill:#fff;}</style></defs><title>logo_mae</title><g id="_Group_" data-name="&lt;Group&gt;"><path id="_Path_" data-name="&lt;Path&gt;" class="cls-1" d="M879.57,2103.35c189,0,444.4-307,463.18-326.94,10-8.88,25-7.19,38.81,0s-93.89,255-162.74,326.94c-22.53-63.95-92-113.51-92-113.51s133.32,2.4,202.17,16" transform="translate(-879.57 -1750.37)"/></g><g id="_Group_2" data-name="&lt;Group&gt;"><path id="_Path_2" data-name="&lt;Path&gt;" class="cls-2" d="M1349,2103.35h-20s106.41-235.11,152.72-333h-17.53" transform="translate(-879.57 -1750.37)"/><path id="_Path_3" data-name="&lt;Path&gt;" class="cls-2" d="M1578.09,2103.35h-58.84s225.33-333,117.67-333-208.4,126.49-208.4,126.49" transform="translate(-879.57 -1750.37)"/></g><g id="_Group_3" data-name="&lt;Group&gt;"><path id="_Path_4" data-name="&lt;Path&gt;" class="cls-2" d="M1929.54,1919.63s-75.9,176.53-222.36,176.53,60.88-325.79,179.41-325.79h17.13c179,0-144,333,43.81,333" transform="translate(-879.57 -1750.37)"/></g><g id="_Group_4" data-name="&lt;Group&gt;"><path id="_Path_5" data-name="&lt;Path&gt;" class="cls-3" d="M1315,2409c-74.78,0,53.84-207.67-17.45-207.67h-6.82c-47.2,0-129.78,203.18-71.45,203.18s88.55-110.09,88.55-110.09" transform="translate(-879.57 -1750.37)"/></g><g id="_Group_5" data-name="&lt;Group&gt;"><path id="_Path_6" data-name="&lt;Path&gt;" class="cls-3" d="M1596.24,2382.82s-26.43,31-61.5,21.7c-56.39-14.92,4.23-203.18,67.69-203.18,46.79,0-1.5,121.39-63.46,101.59" transform="translate(-879.57 -1750.37)"/></g><g id="_Group_6" data-name="&lt;Group&gt;"><path id="_Path_7" data-name="&lt;Path&gt;" class="cls-4" d="M949.44,2409H917.12s64.12-180.65,74.62-254.78c0,0-44.58,28-112.17,28" transform="translate(-879.57 -1750.37)"/><path id="_Path_8" data-name="&lt;Path&gt;" class="cls-3" d="M1147.75,2409H1119s110.09-254.78,57.49-254.78-101.82,97.67-101.82,97.67" transform="translate(-879.57 -1750.37)"/><path id="_Path_9" data-name="&lt;Path&gt;" class="cls-3" d="M1042.59,2409h-28.75s110.09-254.78,57.49-254.78-98.07,90.16-98.07,90.16" transform="translate(-879.57 -1750.37)"/></g><g id="_Group_7" data-name="&lt;Group&gt;"><path id="_Path_10" data-name="&lt;Path&gt;" class="cls-3" d="M1469,2409c-74.78,0,53.84-207.67-17.45-207.67h-6.82c-47.2,0-129.78,203.18-71.45,203.18s88.55-110.09,88.55-110.09" transform="translate(-879.57 -1750.37)"/><path id="_Path_11" data-name="&lt;Path&gt;" class="cls-3" d="M1436,2365.4c28-62.88,45.45-145,70.21-211.17h20.52" transform="translate(-879.57 -1750.37)"/></g><g id="_Group_8" data-name="&lt;Group&gt;"><path id="_Path_12" data-name="&lt;Path&gt;" class="cls-3" d="M1675.52,2409c-74.78,0,8.84-111.63,8.84-207.67" transform="translate(-879.57 -1750.37)"/><circle id="_Path_13" data-name="&lt;Path&gt;" class="cls-5" cx="809.93" cy="403.86" r="17.98"/></g><g id="_Group_9" data-name="&lt;Group&gt;"><path id="_Path_14" data-name="&lt;Path&gt;" class="cls-3" d="M1951.53,2294.43s-30.23,110.09-88.55,110.09,24.25-203.18,71.45-203.18h6.82c71.29,0-57.33,207.67,17.45,207.67" transform="translate(-879.57 -1750.37)"/></g><g id="_Group_10" data-name="&lt;Group&gt;"><path id="_Path_15" data-name="&lt;Path&gt;" class="cls-3" d="M1780.67,2409c-64.89,0,56.33-183.8,80.19-207.67,0,0-160.61,91.29-132.56,28.44,32.55-73.86,79-8.39-4.25,93.89" transform="translate(-879.57 -1750.37)"/></g></svg>