<svg id="Layer_13_copy" data-name="Layer 13 copy" xmlns="http://www.w3.org/2000/svg" viewBox="0 0 1906.64 306.99"><defs><style>.cls-1,.cls-2{fill:none;stroke:#ec008c;stroke-linejoin:round;stroke-width:28px;}.cls-1{stroke-linecap:square;}.cls-3{fill:#ec008c;}</style></defs><title>nome_mae</title><g id="_Group_" data-name="&lt;Group&gt;"><path id="_Path_" data-name="&lt;Path&gt;" class="cls-1" d="M500.2,1938.78c158.37,0,372.33-257.18,388.06-273.92,8.39-7.44,21-6,32.51,0s-78.66,213.64-136.35,273.92c-18.88-53.58-77.09-95.1-77.09-95.1s111.7,2,169.38,13.39" transform="translate(-486.2 -1645.8)"/></g><g id="_Group_2" data-name="&lt;Group&gt;"><path id="_Path_2" data-name="&lt;Path&gt;" class="cls-1" d="M1730.22,1938.78c-74.78,0,53.84-207.67-17.45-207.67h-6.82c-47.2,0-129.78,203.18-71.45,203.18s88.55-110.09,88.55-110.09" transform="translate(-486.2 -1645.8)"/></g><g id="_Group_3" data-name="&lt;Group&gt;"><path id="_Path_3" data-name="&lt;Path&gt;" class="cls-1" d="M2011.46,1915.35s-26.43,31-61.5,21.7c-56.39-14.92,4.23-203.18,67.69-203.18,46.79,0-1.5,121.39-63.46,101.59" transform="translate(-486.2 -1645.8)"/></g><g id="_Group_4" data-name="&lt;Group&gt;"><path id="_Path_4" data-name="&lt;Path&gt;" class="cls-2" d="M1364.67,1938.78h-32.32S1396.47,1758.14,1407,1684c0,0-44.58,28-112.17,28" transform="translate(-486.2 -1645.8)"/><path id="_Path_5" data-name="&lt;Path&gt;" class="cls-1" d="M1563,1938.78h-28.75S1644.32,1684,1591.72,1684s-101.82,97.67-101.82,97.67" transform="translate(-486.2 -1645.8)"/><path id="_Path_6" data-name="&lt;Path&gt;" class="cls-1" d="M1457.82,1938.78h-28.75S1539.17,1684,1486.57,1684s-98.07,90.16-98.07,90.16" transform="translate(-486.2 -1645.8)"/></g><g id="_Group_5" data-name="&lt;Group&gt;"><path id="_Path_7" data-name="&lt;Path&gt;" class="cls-1" d="M1884.19,1938.78c-74.78,0,53.84-207.67-17.45-207.67h-6.82c-47.2,0-129.78,203.18-71.45,203.18S1877,1824.2,1877,1824.2" transform="translate(-486.2 -1645.8)"/><path id="_Path_8" data-name="&lt;Path&gt;" class="cls-1" d="M1851.26,1895.17c28-62.88,45.45-145,70.21-211.17H1942" transform="translate(-486.2 -1645.8)"/></g><g id="_Group_6" data-name="&lt;Group&gt;"><path id="_Path_9" data-name="&lt;Path&gt;" class="cls-1" d="M2090.75,1938.78c-74.78,0,8.84-111.63,8.84-207.67" transform="translate(-486.2 -1645.8)"/><circle id="_Path_10" data-name="&lt;Path&gt;" class="cls-3" cx="1618.52" cy="38.2" r="17.98"/></g><g id="_Group_7" data-name="&lt;Group&gt;"><path id="_Path_11" data-name="&lt;Path&gt;" class="cls-1" d="M2366.75,1824.2s-30.23,110.09-88.55,110.09,24.25-203.18,71.45-203.18h6.82c71.29,0-57.33,207.67,17.45,207.67" transform="translate(-486.2 -1645.8)"/></g><g id="_Group_8" data-name="&lt;Group&gt;"><path id="_Path_12" data-name="&lt;Path&gt;" class="cls-1" d="M2195.9,1938.78c-64.89,0,56.33-183.8,80.19-207.67,0,0-160.61,91.29-132.56,28.44,32.55-73.86,79-8.39-4.25,93.89" transform="translate(-486.2 -1645.8)"/></g><g id="_Group_9" data-name="&lt;Group&gt;"><path id="_Path_13" data-name="&lt;Path&gt;" class="cls-1" d="M1186.07,1938.78c-74.78,0,53.84-207.67-17.45-207.67h-6.82c-47.2,0-129.78,203.18-71.45,203.18s88.55-110.09,88.55-110.09" transform="translate(-486.2 -1645.8)"/></g><g id="_Group_10" data-name="&lt;Group&gt;"><path id="_Path_14" data-name="&lt;Path&gt;" class="cls-2" d="M928.52,1938.78H896.2s64.12-180.65,74.62-254.78" transform="translate(-486.2 -1645.8)"/><path id="_Path_15" data-name="&lt;Path&gt;" class="cls-1" d="M1021.67,1938.78H992.93S1103,1684,1050.42,1684s-98.07,90.16-98.07,90.16" transform="translate(-486.2 -1645.8)"/></g></svg>