<svg id="Layer_13" data-name="Layer 13" xmlns="http://www.w3.org/2000/svg" viewBox="0 0 1099.1 841.43"><defs><style>.cls-1{fill:#f7c9a8;}.cls-2{fill:#8872b4;}</style></defs><title>top</title><path id="_Rectangle_" data-name="&lt;Rectangle&gt;" class="cls-1" d="M112.45,2.5H986.66A112.45,112.45,0,0,1,1099.1,114.95V477.3a71,71,0,0,1-71,71H71a71,71,0,0,1-71-71V114.95A112.45,112.45,0,0,1,112.45,2.5Z"/><path id="_Path_" data-name="&lt;Path&gt;" class="cls-2" d="M2055.17,1189.74h0V1064.35H956.07v728.77s0,112.66,95.14,112.66c138,0,127-285.42,162.42-285.42,20.66,0,23.94,46.47,77.93,46.47,28.32,0,47-22.84,60-56.7,37.4-97.47,27.45-286.46,63-286.46,39.43,0,17.84,211.25,132.38,211.25,117.83,0,101.4-221.57,186.83-221.57,52.11,0,33.8,110.79,119.24,110.79,98.58,0,87.63-200.92,130.5-200.92,23.57,0,23.47,97.41,50.09,97.41,21.58,0,21.58-19.32,21.58-41.31v-89.59Z" transform="translate(-956.07 -1064.35)"/></svg>