<svg id="Layer_13_copy" data-name="Layer 13 copy" xmlns="http://www.w3.org/2000/svg" viewBox="0 0 1939.1 1484.51"><defs><style>.cls-1{fill:#f7c9a8;}.cls-2{fill:#8872b4;}</style></defs><title>top_mae</title><path id="_Rectangle_" data-name="&lt;Rectangle&gt;" class="cls-1" d="M0,4.42H1936.57A2.54,2.54,0,0,1,1939.1,7V896.34a71,71,0,0,1-71,71H71a71,71,0,0,1-71-71V4.42A0,0,0,0,1,0,4.42Z"/><path id="_Path_" data-name="&lt;Path&gt;" class="cls-2" d="M1939.1,222.22h0V1H0V1286.74s0,198.77,167.85,198.77C411.34,1485.51,391.94,982,454.41,982c36.44,0,42.24,82,137.48,82,50,0,82.94-40.29,105.87-100,66-172,48.42-505.39,111.12-505.39,69.57,0,31.47,372.69,233.55,372.69,207.88,0,178.89-390.91,329.63-390.91,91.93,0,59.63,195.46,210.36,195.46,173.92,0,154.6-354.47,230.24-354.47,41.58,0,41.41,171.86,88.36,171.86,38.07,0,38.07-34.08,38.07-72.88V222.22Z" transform="translate(0 -1)"/></svg>